HIERARCHY
ROOT RootJoint
{
    OFFSET   0.000000   0.000000   0.000000
    CHANNELS 6 Xposition Yposition Zposition Xrotation Yrotation Zrotation
    JOINT pelvis_lowerback
    {
        OFFSET   0.000000   0.093605   0.000000
        CHANNELS 3 Xrotation Yrotation Zrotation
        JOINT lowerback_torso
        {
            OFFSET   0.000000   0.100000   0.000000
            CHANNELS 3 Xrotation Yrotation Zrotation
            JOINT torso_head
            {
                OFFSET   0.000000   0.282350   0.000000
                CHANNELS 3 Xrotation Yrotation Zrotation
                End Site
                {
                    OFFSET   0.000000   0.192650   0.000000
                }
            }
            JOINT rTorso_Clavicle
            {
                OFFSET  -0.001000   0.157500   0.000000
                CHANNELS 3 Xrotation Yrotation Zrotation
                JOINT rShoulder
                {
                    OFFSET  -0.117647   0.000000   0.000000
                    CHANNELS 3 Xrotation Yrotation Zrotation
                    JOINT rElbow
                    {
                        OFFSET  -0.245000   0.000000   0.000000
                        CHANNELS 3 Xrotation Yrotation Zrotation
                        JOINT rWrist
                        {
                            OFFSET  -0.240000   0.000000   0.000000
                            CHANNELS 3 Xrotation Yrotation Zrotation
                            End Site
                            {
                                OFFSET  -0.116353  -0.002500   0.000000
                            }
                        }
                    }
                }
            }
            JOINT lTorso_Clavicle
            {
                OFFSET   0.001000   0.157500   0.000000
                CHANNELS 3 Xrotation Yrotation Zrotation
                JOINT lShoulder
                {
                    OFFSET   0.117647   0.000000   0.000000
                    CHANNELS 3 Xrotation Yrotation Zrotation
                    JOINT lElbow
                    {
                        OFFSET   0.245000   0.000000   0.000000
                        CHANNELS 3 Xrotation Yrotation Zrotation
                        JOINT lWrist
                        {
                            OFFSET   0.240000   0.000000   0.000000
                            CHANNELS 3 Xrotation Yrotation Zrotation
                            End Site
                            {
                                OFFSET   0.116353  -0.002500   0.000000
                            }
                        }
                    }
                }
            }
        }
    }
    JOINT rHip
    {
        OFFSET  -0.100000  -0.051395   0.000000
        CHANNELS 3 Xrotation Yrotation Zrotation
        JOINT rKnee
        {
            OFFSET   0.000000  -0.410000   0.000000
            CHANNELS 3 Xrotation Yrotation Zrotation
            JOINT rAnkle
            {
                OFFSET   0.000000  -0.390000   0.000000
                CHANNELS 3 Xrotation Yrotation Zrotation
                JOINT rToeJoint
                {
                    OFFSET   0.000000  -0.050000   0.130000
                    CHANNELS 3 Xrotation Yrotation Zrotation
                    End Site
                    {
                        OFFSET  -0.010000   0.002000   0.060000
                    }
                }
            }
        }
    }
    JOINT lHip
    {
        OFFSET   0.100000  -0.051395   0.000000
        CHANNELS 3 Xrotation Yrotation Zrotation
        JOINT lKnee
        {
            OFFSET   0.000000  -0.410000   0.000000
            CHANNELS 3 Xrotation Yrotation Zrotation
            JOINT lAnkle
            {
                OFFSET   0.000000  -0.390000   0.000000
                CHANNELS 3 Xrotation Yrotation Zrotation
                JOINT lToeJoint
                {
                    OFFSET   0.000000  -0.050000   0.130000
                    CHANNELS 3 Xrotation Yrotation Zrotation
                    End Site
                    {
                        OFFSET   0.010000   0.002000   0.060000
                    }
                }
            }
        }
    }
}
MOTION
Frames: 17
Frame Time:   0.008333
 -2.376719   0.925631   3.975860   0.000000   0.000000   0.000000   0.000000   0.000000   0.000000   0.000000   0.000000   0.000000   0.000000   0.000000   0.000000   0.000000   0.000000   0.000000   0.000000   0.000000   0.000000   0.000000   0.000000   0.000000   0.000000   0.000000   0.000000   0.000000   0.000000   0.000000   0.000000   0.000000   0.000000   0.000000   0.000000   0.000000   0.000000   0.000000   0.000000   0.000000   0.000000   0.000000   0.000000   0.000000   0.000000   0.000000   0.000000   0.000000   0.000000   0.000000   0.000000   0.000000   0.000000   0.000000   0.000000   0.000000   0.000000   0.000000   0.000000   0.000000   0.000000   0.000000   0.000000
 -2.376619   0.926108   3.976195  -0.488482   0.107547   0.041928   0.437575   0.038683  -0.038837   0.261234  -0.155773   0.000913  -0.118223  -0.059766   0.059858   0.056633  -0.106196   0.201587  -0.138319  -0.079219   2.031743   0.007782   0.398770  -0.000462   0.269649  -0.065036  -2.638125   0.239784   0.139008  -0.521904   0.589531   0.010889  -1.781207   0.009706  -0.482426   0.004407   0.328849   0.077953   2.694394   0.295826  -0.200979  -0.199288   0.959029   0.001314  -0.000793  -1.105415  -0.477749  -0.054855  -0.238008  -0.000443   0.001183   0.436250  -0.150749   0.111917   0.421213  -0.000563  -0.000155  -0.657713   0.114803  -0.033453   0.290796  -0.000302   0.000181
 -2.376536   0.926902   3.976693  -1.008697   0.263882   0.097447   0.854072   0.049853  -0.082781   0.572714  -0.339078  -0.012310  -0.203216  -0.118394   0.126389   0.112786  -0.237372   1.103580  -0.264471  -0.171792   4.489077   0.017295   0.777022  -0.000807   0.544392  -0.048757  -4.539646   0.476515   0.266813  -1.775851   1.146213  -0.002882  -4.033418   0.022054  -0.945593   0.007590   0.690838   0.044015   4.647322   0.626835  -0.409443  -0.535558   2.004351   0.003603  -0.001200  -2.138246  -0.932179  -0.117883  -0.508392  -0.001178   0.002128   0.910648  -0.290257   0.352071   0.891669  -0.001651  -0.000031  -1.274208   0.224172  -0.062916   0.519730  -0.000763   0.000399
 -2.376488   0.927601   3.977302  -1.499486   0.431707   0.159771   1.229812   0.044116  -0.134100   0.865539  -0.529080  -0.038140  -0.276087  -0.173102   0.192094   0.168194  -0.374974   2.446252  -0.377216  -0.275198   7.155955   0.026009   1.126837  -0.000942   0.809528  -0.033003  -5.621231   0.700509   0.375965  -3.474965   1.664187  -0.041291  -6.528946   0.033740  -1.379264   0.009558   1.042934  -0.022202   5.744221   0.950991  -0.610022  -0.973563   3.010393   0.006179  -0.001453  -3.101249  -1.356943  -0.185638  -0.758431  -0.001932   0.002680   1.373931  -0.411553   0.705227   1.347301  -0.002944   0.000214  -1.849545   0.328557  -0.088334   0.722679  -0.001286   0.000593
 -2.376476   0.927907   3.977992  -1.953206   0.590723   0.225466   1.567673   0.029816  -0.194045   1.129922  -0.716436  -0.075238  -0.343496  -0.224148   0.254882   0.223840  -0.512728   4.043335  -0.475893  -0.386197   9.899937   0.032921   1.449722  -0.000918   1.062110  -0.030842  -6.096581   0.912115   0.469576  -5.423133   2.145111  -0.102646  -9.125964   0.043376  -1.784634   0.010627   1.381182  -0.103877   6.205512   1.257857  -0.802045  -1.488556   3.957319   0.008654  -0.001760  -4.000805  -1.753478  -0.256542  -0.992672  -0.002637   0.002994   1.818947  -0.516623   1.151845   1.777535  -0.004239   0.000457  -2.387016   0.427905  -0.110058   0.902628  -0.001780   0.000725
 -2.376493   0.927609   3.978740  -2.371981   0.731868   0.292233   1.872291   0.011403  -0.262334   1.367591  -0.896686  -0.122380  -0.406657  -0.271857   0.313924   0.280465  -0.648585   5.766999  -0.560573  -0.502636  12.632703   0.037762   1.747627  -0.000788   1.301962  -0.042224  -6.164827   1.112068   0.551384  -7.488566   2.590699  -0.183228 -11.730974   0.050494  -2.163228   0.011060   1.704843  -0.194794   6.238969   1.544988  -0.985507  -2.061226   4.844147   0.010824  -0.002166  -4.841438  -2.123462  -0.329377  -1.211909  -0.003248   0.003152   2.245258  -0.607637   1.672779   2.182394  -0.005421   0.000653  -2.889082   0.522131  -0.128519   1.063078  -0.002202   0.000794
 -2.376532   0.926560   3.979526  -2.759412   0.852066   0.358409   2.147926  -0.008848  -0.337977   1.581987  -1.067970  -0.178331  -0.465828  -0.316486   0.368935   0.338615  -0.781985   7.530782  -0.631800  -0.622917  15.297182   0.040635   2.022426  -0.000595   1.529660  -0.065473  -5.974452   1.301232   0.624405  -9.583365   3.002762  -0.278760 -14.283876   0.055124  -2.516525   0.011055   2.013779  -0.290879   5.998947   1.812114  -1.160310  -2.675642   5.673454   0.012592  -0.002644  -5.627048  -2.468514  -0.403159  -1.416157  -0.003739   0.003198   2.653218  -0.686352   2.250653   2.563470  -0.006431   0.000793  -3.357945   0.611240  -0.144143   1.207201  -0.002533   0.000813
 -2.376508   0.924108   3.979624  -2.860367   0.922304   0.421913   2.333145  -0.016795  -0.378150   1.655570  -1.201311  -0.272720  -0.652391  -0.459640   0.370471   0.494111  -0.842749   8.793372  -0.511236  -0.684868  17.602504   0.039969   2.267274  -0.001174   1.693815  -0.105305  -4.836441   1.563517   0.653980 -10.913236   3.276855  -0.441710 -16.823691   0.053706  -2.791562   0.010567   2.241782  -0.457792   4.840317   1.753596  -1.502058  -3.238815   6.093511   0.011774  -0.003398  -5.812664  -2.920557  -0.376811  -1.334630  -0.002636   0.002051   2.745159  -0.670449   2.749425   2.654165  -0.005581   0.000735  -3.613826   0.675636  -0.255196   1.393818  -0.002744   0.000913
 -2.376466   0.920476   3.979334  -2.920354   0.952374   0.482687   2.570199  -0.016749  -0.414134   1.730656  -1.317536  -0.367653  -0.841672  -0.596810   0.365999   0.629100  -0.855956   9.744513  -0.404907  -0.709488  19.594308   0.037925   2.504713  -0.001739   1.860812  -0.116383  -3.863035   1.797455   0.648671 -11.928909   3.520319  -0.617756 -19.044503   0.050643  -3.052486   0.010191   2.455690  -0.635063   3.803562   1.606230  -1.828078  -3.744256   6.397452   0.010475  -0.003712  -5.984048  -3.345309  -0.354369  -1.221387  -0.001680   0.000929   2.767831  -0.653404   3.181293   2.668513  -0.004525   0.000599  -3.854449   0.736048  -0.358881   1.570973  -0.002782   0.000914
 -2.376391   0.920217   3.979269  -3.108778   0.980965   0.553621   2.891421  -0.023867  -0.456704   1.885794  -1.429686  -0.464356  -1.004371  -0.725275   0.361375   0.744265  -0.838131  10.746464  -0.312052  -0.711303  21.445319   0.035830   2.730789  -0.002173   2.024381  -0.110708  -3.194623   2.000969   0.607976 -12.988438   3.733046  -0.809896 -21.105655   0.047501  -3.298073   0.009783   2.660054  -0.793320   3.063730   1.454265  -2.242472  -3.903486   6.984454   0.008511  -0.005175  -5.790161  -3.819477  -0.160882  -1.046174  -0.001451  -0.000600   2.812593  -0.525256   3.145596   2.903545  -0.003667   0.000847  -3.691920   0.893182  -0.661736   1.803583  -0.001668   0.001392
 -2.376380   0.920117   3.979297  -3.224539   1.003749   0.612684   3.148545  -0.031087  -0.499988   2.013364  -1.535387  -0.552987  -1.150388  -0.845208   0.355646   0.853701  -0.826129  11.528103  -0.224880  -0.710244  23.124968   0.033129   2.944945  -0.002396   2.183977  -0.079450  -2.527475   2.192454   0.575206 -13.822725   3.926664  -0.993499 -22.980094   0.043815  -3.531606   0.009255   2.857211  -0.980417   2.334120   1.337628  -2.541167  -4.018638   7.416824   0.006819  -0.005304  -5.838675  -4.185812  -0.131032  -0.908784  -0.001119  -0.001265   2.854731  -0.498173   3.099681   3.059721  -0.002941   0.000766  -3.777253   0.945686  -0.771574   1.993521  -0.001161   0.001297
 -2.376419   0.920057   3.979308  -3.291205   1.011607   0.662864   3.387499  -0.034805  -0.542029   2.121236  -1.631965  -0.636867  -1.290873  -0.957048   0.349399   0.953644  -0.812123  12.156530  -0.145725  -0.705196  24.624321   0.030113   3.146237  -0.002503   2.336384  -0.041302  -1.986673   2.369302   0.544192 -14.499990   4.102079  -1.166003 -24.660923   0.039810  -3.749176   0.008675   3.043800  -1.162280   1.735762   1.215417  -2.808197  -4.118302   7.761812   0.005443  -0.005104  -5.913278  -4.522598  -0.112067  -0.803576  -0.000868  -0.001569   2.878682  -0.484475   3.061447   3.160464  -0.002360   0.000642  -3.886741   0.988611  -0.863951   2.148143  -0.000811   0.001130
 -2.376502   0.920016   3.979293  -3.327334   1.005970   0.706770   3.621602  -0.036283  -0.583069   2.223619  -1.720213  -0.716648  -1.423145  -1.061384   0.342799   1.044166  -0.795172  12.665351  -0.074355  -0.696195  25.968201   0.027031   3.335411  -0.002540   2.481996  -0.000722  -1.574382   2.532261   0.513900 -15.054426   4.261147  -1.328251 -26.174135   0.035765  -3.951540   0.008086   3.220652  -1.330490   1.268623   1.086037  -3.055947  -4.207748   8.054557   0.004332  -0.004789  -5.994097  -4.836897  -0.095552  -0.710632  -0.000676  -0.001724   2.887927  -0.473727   3.029612   3.230529  -0.001894   0.000522  -4.000917   1.028304  -0.948413   2.286888  -0.000555   0.000961
 -2.376731   0.919995   3.979260  -3.299914   1.012402   0.715759   3.823581  -0.029696  -0.677266   2.271266  -1.753579  -0.722435  -1.529088  -1.134308   0.356925   1.072134  -0.874141  12.973708   0.062217  -0.660393  26.970494   0.024405   3.595355  -0.002720   2.554581   0.027591  -0.804971   2.661664   0.525962 -15.282639   4.300146  -1.543503 -27.413581   0.033049  -4.264122   0.007672   3.359895  -1.445356   0.400495   0.967519  -3.229743  -4.235241   8.205562   0.003439  -0.004071  -6.027332  -4.991570  -0.052840  -0.595141  -0.000573  -0.001710   2.823373  -0.432443   3.040795   3.291752  -0.001524   0.000447  -4.030685   1.072786  -0.963112   2.380981  -0.000444   0.000847
 -2.376997   0.919999   3.979221  -3.247174   1.010480   0.712984   4.011192  -0.017051  -0.779945   2.301687  -1.780255  -0.720592  -1.628550  -1.198899   0.369794   1.091353  -0.940932  13.100433   0.182594  -0.617202  27.786551   0.021363   3.844130  -0.002789   2.622908   0.086273  -0.210395   2.768991   0.525930 -15.305325   4.325466  -1.750451 -28.433236   0.029611  -4.564104   0.007198   3.488233  -1.602363  -0.276030   0.852241  -3.386578  -4.245017   8.302137   0.002731  -0.003400  -6.075016  -5.133150  -0.014117  -0.487205  -0.000495  -0.001656   2.743170  -0.394397   3.064527   3.335511  -0.001227   0.000373  -4.065409   1.113256  -0.971840   2.473800  -0.000363   0.000741
 -2.377261   0.920018   3.979189  -3.178319   0.993520   0.704474   4.188813  -0.002480  -0.883443   2.324104  -1.803375  -0.719069  -1.722459  -1.258567   0.379868   1.101668  -0.993353  13.097557   0.288077  -0.567504  28.458934   0.018265   4.080415  -0.002772   2.688377   0.159004   0.191656   2.862339   0.518994 -15.190736   4.343547  -1.943159 -29.284806   0.025924  -4.845339   0.006716   3.610222  -1.759375  -0.736840   0.736437  -3.532735  -4.248164   8.366763   0.002172  -0.002817  -6.130870  -5.265625   0.021588  -0.389652  -0.000428  -0.001580   2.658776  -0.359821   3.091671   3.362306  -0.000986   0.000303  -4.106246   1.150631  -0.978041   2.558924  -0.000298   0.000634
 -2.377504   0.920046   3.979175  -3.098295   0.960747   0.692378   4.358456   0.012427  -0.985044   2.342708  -1.823620  -0.718843  -1.810528  -1.314131   0.387918   1.105133  -1.034797  13.004216   0.381025  -0.514190  29.018957   0.015327   4.303985  -0.002694   2.751000   0.239430   0.440402   2.945292   0.508868 -14.985556   4.356854  -2.121188 -30.006455   0.022320  -5.107760   0.006246   3.726836  -1.904096  -1.029557   0.620223  -3.669089  -4.248480   8.409236   0.001729  -0.002319  -6.190806  -5.389630   0.054512  -0.301023  -0.000371  -0.001493   2.573746  -0.328295   3.118988   3.376450  -0.000791   0.000243  -4.150503   1.185318  -0.982748   2.636472  -0.000245   0.000529
